<svg width="507" height="317" viewBox="0 0 507 317" fill="none" xmlns="http://www.w3.org/2000/svg">
<path opacity="0.6" d="M378.998 272.772C439.004 238.426 447.85 144.848 409.244 81.0826C370.637 17.3168 290.697 -6.53219 230.691 27.8143C157.873 55.4883 90.0473 167.844 191.944 205.462C293.841 243.08 318.993 307.119 378.998 272.772Z" fill="#FCCBBB"/>
<path d="M402.029 45.4753L421.466 69.2429L389.625 98.7057L367.3 76.0625M402.029 45.4753L367.3 76.0625M402.029 45.4753C402.029 45.4753 399.888 74.9025 396.354 77.4446C392.195 80.4359 367.3 76.0625 367.3 76.0625" stroke="#2727E6" stroke-linecap="round"/>
<path d="M281.403 208.496H137.788V293.839C137.788 293.839 270.066 293.839 296.521 293.839C296.521 261.431 281.403 208.496 281.403 208.496Z" fill="#2727E6"/>
<path d="M122.626 128.425C91.1281 166.421 83.3112 204.963 83.384 234.056C83.4205 248.677 85.4501 260.912 87.4698 269.488C88.4795 273.777 89.4866 277.15 90.2403 279.448C90.6172 280.598 90.9307 281.479 91.1496 282.071C91.259 282.367 91.3447 282.591 91.4028 282.74C91.4158 282.773 91.4273 282.803 91.4375 282.829L107.208 293.554C107.308 293.401 107.434 293.208 107.583 292.975C108.013 292.307 108.638 291.314 109.418 290.023C110.979 287.44 113.159 283.661 115.636 278.884C120.59 269.329 126.726 255.785 131.454 239.826C140.863 208.074 144.685 166.827 122.626 128.425Z" fill="white" stroke="#2727E6"/>
<path d="M59.1461 170.112C49.6344 207.724 57.6992 238.357 68.1819 259.629C73.457 270.333 79.3441 278.666 83.9109 284.321C86.1941 287.148 88.1467 289.305 89.5269 290.754C90.2169 291.479 90.7638 292.026 91.1372 292.391C91.324 292.574 91.4673 292.711 91.5635 292.802C91.5645 292.803 91.5654 292.804 91.5663 292.805L104.956 292.805C104.975 292.669 104.997 292.5 105.022 292.301C105.1 291.686 105.207 290.776 105.322 289.603C105.553 287.258 105.817 283.858 105.949 279.65C106.212 271.234 105.948 259.588 103.838 246.674C99.6458 221.016 88.1767 190.406 59.1461 170.112Z" fill="white" stroke="#2727E6"/>
<path fill-rule="evenodd" clip-rule="evenodd" d="M96.487 169.796L111.774 207.393L96.487 169.796Z" fill="white"/>
<path d="M294.881 156.101C290.563 164.311 272.567 170.324 264.108 172.304C224.698 197.688 140.478 241.435 118.881 213.348C97.2846 185.261 129.679 158.368 148.035 154.476C170.847 149.639 164.507 135.239 175.025 100.465C187.441 59.4154 224.152 60.4996 245.756 63.7409C263.329 66.3774 273.291 81.0258 275.984 97.7673C277.808 109.097 277.387 117.32 287.321 124.234C299.739 132.876 300.279 145.839 294.881 156.101Z" fill="#2727E6"/>
<path d="M237.65 166.366C266.806 166.368 285.705 183.652 294.344 192.834C305.675 204.878 312.16 221.46 312.16 221.46L316.477 237.123C334.186 247.926 349.051 241.625 354.27 237.125C357.726 247.063 359.67 262.15 360.21 268.451C359.74 281.639 356.259 289.304 351.332 293.372L323.504 293.371C318.613 291.201 314.487 288.591 312.162 286.813C292.145 271.502 281.082 257.452 266.809 240.902L164.229 232.797L148.573 260.882L161.532 262.503C155.054 263.583 150.195 283.566 153.435 293.288C139.038 295.088 107.218 299.011 97.2836 291.666C87.3492 284.32 93.1434 265.56 97.2823 257.099L144.251 184.187C150.369 176.805 165.844 165.608 176.641 164.744C187.439 163.88 202.736 164.385 208.495 164.745L237.65 166.366Z" fill="#2727E6"/>
<path d="M258.512 132.226L261.033 102.902C263.555 73.5777 211.892 63.2197 208.866 98.409L208.1 108.078C204.306 107.752 197.566 107.591 196.935 114.922C196.305 122.253 205.157 123.015 209.663 122.48L206.195 162.801C204.777 179.296 237.025 182.074 238.444 165.579L239.368 154.837C243.192 154.8 246.992 153.648 250.187 151.246C254.866 147.728 258.248 141.529 258.512 132.226Z" fill="white"/>
<path d="M342.937 177.709L353.196 177.709C354.325 176.493 355.471 174.613 355.334 172.848C355.334 172.848 355.353 173.289 358.594 169.828C361.834 166.367 359.673 153.45 353.195 153.45C352.541 152.619 351.815 151.874 351.034 151.25C352.507 151.039 356.468 150.822 358.053 150.484C360.537 149.954 362.492 149.111 361.833 147.463C359.673 142.061 353.195 142.061 348.876 142.061L348.875 142.061C345.42 142.061 331.598 144.221 325.119 145.301C314.86 148.001 304.494 155.022 301.903 163.664C299.312 172.306 304.963 194.271 307.304 204.174L316.483 237.662C321.523 241.803 336.03 247.817 353.739 238.743L332.139 184.143C336.045 183.245 339.83 180.04 342.937 177.709Z" fill="white"/>
<path d="M241.975 267.365C222.105 261.747 177.724 261.782 158.287 262.501C153.428 267.002 145.546 279.461 152.889 293.288L232.797 293.291L238.196 291.131C240.716 291.311 243.056 293.291 248.995 293.292L259.253 293.292L267.352 293.292L273.831 293.293C273.616 292.629 273.325 292.443 272.959 291.672C274.15 291.312 276.206 289.944 274.911 287.351C273.291 284.111 261.952 268.446 241.975 267.365Z" fill="white"/>
<path d="M219.309 132.543C218.102 146.57 228.83 154.938 239.368 154.837M239.368 154.837C243.192 154.8 246.992 153.648 250.187 151.246C254.866 147.728 258.248 141.529 258.512 132.226L261.033 102.902C263.555 73.5777 211.892 63.2197 208.866 98.409L208.1 108.078C204.306 107.752 197.566 107.591 196.935 114.922C196.305 122.253 205.157 123.015 209.663 122.48L206.195 162.801C204.777 179.296 237.025 182.074 238.444 165.579L239.368 154.837ZM208.654 112.742C205.809 112.497 202.015 112.17 201.7 115.836M315.941 181.489C319.683 183.072 327.106 185.3 332.139 184.143M347.795 167.987C349.954 159.345 349.595 153.612 344.555 152.46M347.795 167.987C349.711 168.261 352.195 169.256 353.195 169.828M347.795 167.987C344.221 167.476 342.224 167.544 339.698 167.138M351.034 151.25C351.034 151.25 349.066 151.486 344.555 152.46M351.034 151.25C352.507 151.039 356.468 150.822 358.053 150.484C360.537 149.954 362.492 149.111 361.833 147.463C359.673 142.061 353.194 142.061 348.875 142.061C345.42 142.061 331.598 144.221 325.119 145.301C314.86 148.001 304.494 155.022 301.903 163.664C299.312 172.306 304.963 194.271 307.304 204.174L316.483 237.662C321.523 241.803 336.03 247.817 353.739 238.743L332.139 184.143M351.034 151.25C351.815 151.874 352.541 152.619 353.195 153.45M344.555 152.46C342.34 152.939 340.033 153.594 338.077 154.483C332.139 157.184 326.415 161.18 327.279 162.045C328.143 162.909 330.879 164.925 332.138 165.826C332.508 165.9 333.051 166.003 333.757 166.131M353.195 169.828C353.948 170.258 354.472 170.754 354.814 171.288C355.132 171.782 355.293 172.31 355.334 172.848M353.195 169.828C355.334 164.206 356.434 158.265 353.195 153.45M339.698 167.138C339.059 166.465 338.242 165.386 337.721 164.206M339.698 167.138C338.996 167.025 338.337 166.917 337.721 166.815M353.195 153.45C359.673 153.45 361.834 166.367 358.594 169.828C355.353 173.289 355.334 172.848 355.334 172.848M355.334 172.848C355.471 174.613 354.325 176.493 353.196 177.709L342.937 177.709C339.83 180.04 336.045 183.245 332.139 184.143M333.757 166.131C334.757 166.312 336.085 166.544 337.721 166.815M333.757 166.131C333.757 165.836 333.767 165.555 333.787 165.286M337.721 164.206C337.067 162.726 336.876 161.086 338.077 159.885C337.024 159.902 335.201 160.592 334.297 162.894M337.721 164.206L334.297 162.894M334.297 162.894C334.039 163.552 333.856 164.342 333.787 165.286M337.721 166.815L335.378 163.665L333.787 165.286M152.889 293.288C145.546 279.461 153.428 267.002 158.287 262.501C177.724 261.782 222.105 261.747 241.975 267.365C261.952 268.446 273.291 284.111 274.911 287.351C276.206 289.944 274.15 291.312 272.959 291.672M152.889 293.288C154.617 293.288 206.881 293.29 232.797 293.291L238.196 291.131C240.716 291.311 243.056 293.291 248.995 293.292C254.394 293.292 257.633 293.292 259.253 293.292M152.889 293.288L88.1023 293.286M259.253 293.292C259.685 292.428 259.073 291.492 258.713 291.132C256.193 288.071 248.238 281.949 236.576 281.949M259.253 293.292L267.352 293.292M267.352 293.292C266.092 288.791 259.253 279.249 241.975 277.088M267.352 293.292L273.831 293.293M273.831 293.293C273.616 292.629 273.325 292.443 272.959 291.672M273.831 293.293L382.359 293.297M246.294 273.307C260.295 274.086 269.657 284.702 272.959 291.672" stroke="#2727E6" stroke-linecap="round"/>
<path d="M435.965 288.099L451.14 211.146L354.54 211.142L338.815 286.812L289.502 286.81L289.502 293.309L435.966 293.314L435.965 288.099Z" fill="white"/>
<path d="M435.965 288.099L435.465 288.099L435.465 288.05L435.475 288.002L435.965 288.099ZM451.14 211.146L451.139 210.646L451.748 210.646L451.63 211.243L451.14 211.146ZM354.54 211.142L354.05 211.04L354.133 210.642L354.54 210.642L354.54 211.142ZM289.502 286.81L289.002 286.81L289.002 286.31L289.502 286.31L289.502 286.81ZM289.502 293.309L289.503 293.809L289.003 293.809L289.002 293.309L289.502 293.309ZM435.966 293.314L435.97 293.814L435.966 293.814L435.966 293.314ZM425.147 286.315C425.423 286.315 425.647 286.539 425.647 286.815C425.647 287.092 425.423 287.315 425.147 287.315L425.147 286.315ZM495.2 292.334C495.476 292.332 495.701 292.554 495.704 292.83C495.706 293.106 495.484 293.332 495.208 293.334L495.2 292.334ZM435.475 288.002L450.649 211.049L451.63 211.243L436.456 288.196L435.475 288.002ZM451.14 211.646L354.54 211.642L354.54 210.642L451.139 210.646L451.14 211.646ZM355.029 211.244L339.304 286.914L338.325 286.71L354.05 211.04L355.029 211.244ZM289.502 286.31L338.815 286.312L338.815 287.312L289.502 287.31L289.502 286.31ZM289.002 293.309L289.002 286.81L290.002 286.81L290.002 293.309L289.002 293.309ZM435.966 293.814L289.503 293.809L289.502 292.809L435.965 292.814L435.966 293.814ZM436.465 288.099L436.466 293.314L435.466 293.314L435.465 288.099L436.465 288.099ZM338.815 286.312L425.147 286.315L425.147 287.315L338.815 287.312L338.815 286.312ZM435.961 292.814L495.2 292.334L495.208 293.334L435.97 293.814L435.961 292.814Z" fill="#2727E6"/>
<path fill-rule="evenodd" clip-rule="evenodd" d="M387.481 254.97C387.481 259.107 390.919 262.463 395.156 262.464C399.397 262.464 402.832 259.108 402.831 254.971C402.831 250.831 399.396 247.478 395.156 247.478C390.918 247.478 387.481 250.831 387.481 254.97Z" fill="#2727E6"/>
<path d="M395.195 243.153C397.584 242.906 407.329 239.369 404.75 236.493C400.769 232.054 396.788 238.713 395.195 243.153Z" fill="#2727E6"/>
<path d="M248.81 85.3012C249.689 82.8504 249.663 80.8356 249.001 79.2346C248.339 77.6328 247.012 76.3748 245.152 75.4948C241.412 73.7255 235.621 73.5395 229.351 75.1469C216.886 78.3425 202.859 88.5368 199.944 106.594C202.981 109.731 208.329 110.893 214.418 110.423C220.593 109.947 227.397 107.799 232.992 104.512C237.182 102.052 240.297 99.5666 242.78 96.5502C245.265 93.5334 247.137 89.9612 248.81 85.3012Z" fill="#2727E6" stroke="#2727E6"/>
<path d="M240.868 81.4937C241.087 79.8681 241.681 78.772 242.49 78.0902C243.299 77.4078 244.382 77.0912 245.669 77.1385C248.266 77.2339 251.585 78.8125 254.669 81.5693C260.778 87.0306 265.713 96.8854 262.121 107.925C259.55 108.743 256.253 107.853 252.971 105.816C249.615 103.733 246.39 100.515 244.185 97.0078C242.531 94.3776 241.499 92.0586 240.98 89.6302C240.46 87.2012 240.447 84.6322 240.868 81.4937Z" fill="#2727E6" stroke="#2727E6"/>
<path d="M156.127 260.883C154.308 260.883 151.444 260.883 148.028 260.883M128.592 260.882C135.076 260.882 142.322 260.882 148.028 260.883M148.028 260.883L165.844 223.073M123.73 217.67C123.73 217.67 135.608 194.445 145.866 183.102C156.124 171.759 173.726 161.173 203.097 164.199M239.27 167.441C240.35 167.441 255.467 168.522 262.486 171.763M314.864 241.444C315.944 248.466 318.213 262.942 318.645 264.671M274.368 211.737C284.267 223.801 294.353 249.114 296.514 292.757M245.763 78.8619C246.123 88.4044 238.097 106.733 203.111 103.707" stroke="white" stroke-linecap="round"/>
<path d="M357.731 134.943C359.326 135.303 363.056 135.915 365.216 135.483C365.216 135.483 388.432 151.147 389.512 145.746C389.789 144.359 388.243 142.196 386.272 138.724C380.563 128.67 367.596 111.63 356.038 101.994C352.737 89.9654 338.221 90.5055 337.255 100.768C332.212 101.2 330.061 102.821 331.681 103.469C333.3 104.117 338.221 104.217 338.221 104.217C338.509 104.746 338.867 105.268 339.301 105.775C337.32 112.365 337.843 126.568 354.291 133.648C355.368 134.111 356.514 134.545 357.731 134.943Z" fill="white"/>
<path d="M344.773 141.965L353.412 141.965M353.412 141.965L357.731 143.045M353.412 141.965L357.731 134.943M357.731 134.943C359.326 135.303 363.056 135.915 365.216 135.483C365.216 135.483 388.432 151.147 389.512 145.746C389.789 144.359 388.243 142.196 386.272 138.724M357.731 134.943C356.514 134.545 355.368 134.111 354.291 133.648M339.301 105.775L345.24 105.235C346.68 105.235 349.559 106.423 349.559 111.177C349.559 115.93 354.957 119.819 359.816 123.6C369.209 130.909 381.92 137.86 386.272 138.724M339.301 105.775C338.867 105.268 338.509 104.746 338.221 104.217M339.301 105.775C337.32 112.365 337.843 126.568 354.291 133.648M386.272 138.724C380.563 128.67 367.596 111.63 356.038 101.994C352.737 89.9654 338.221 90.5055 337.255 100.768M338.221 104.217C338.221 104.217 333.3 104.117 331.681 103.469C330.061 102.821 332.212 101.2 337.255 100.768M338.221 104.217C337.591 103.061 337.293 101.876 337.255 100.768M352.131 140.438L354.291 133.648M342.953 98.8467C342.953 97.2263 345.24 97.5504 345.24 98.8467C345.24 99.7582 344.573 99.927 344.033 99.927C343.493 99.927 342.953 99.3869 342.953 98.8467Z" stroke="#2727E6" stroke-linecap="round"/>
<path d="M308.813 44.2285L334.759 67.9915L352.661 50.6925L325.613 24.6709L308.813 44.2285Z" fill="white"/>
<path d="M352.661 50.6925L334.759 67.9915L308.813 44.2285L325.613 24.6709M352.661 50.6925L325.613 24.6709M352.661 50.6925C352.661 50.6925 328.737 50.9303 326.446 48.2442C323.749 45.0833 325.613 24.6709 325.613 24.6709" stroke="#2727E6" stroke-linecap="round"/>
<path d="M291.405 54.1135L331.424 70.858L344.983 43.3106L302.743 24.4054L291.405 54.1135Z" fill="white"/>
<path d="M344.983 43.3106L331.424 70.858L291.405 54.1135L302.743 24.4054M344.983 43.3106L302.743 24.4054M344.983 43.3106C344.983 43.3106 317.321 53.5734 313.541 51.4128C309.094 48.8704 302.743 24.4054 302.743 24.4054" stroke="#2727E6" stroke-linecap="round"/>
<path d="M434.449 137.66C442.607 139.893 451.049 157.393 449.225 164.573C448.128 168.893 429.107 179.893 429.107 179.893L422.607 191.893L418.107 184.893C418.107 184.893 413.318 188.432 409.107 185.893C401.622 181.381 394.725 167.804 394.724 161.4C394.723 151.393 423.038 134.535 434.449 137.66Z" stroke="#2727E6" stroke-linecap="round"/>
<path d="M256.028 112.891L234.432 112.35L243.07 118.832C243.07 118.832 240.912 114.745 245.77 115.051C249.834 115.307 247.929 118.832 247.929 118.832L256.028 112.891Z" fill="#2727E6"/>
<path d="M233.892 112.35H222.014V115.051C222.014 115.051 226.333 117.212 226.333 119.372C226.333 121.533 237.131 120.453 237.131 120.453L233.892 112.35Z" fill="#2727E6"/>
<path d="M227.328 125.154C225.014 121.032 226.547 115.916 230.764 113.731C234.98 111.545 240.271 113.124 242.585 117.246C244.898 121.368 243.365 126.484 239.149 128.67C234.933 130.855 229.642 129.277 227.328 125.154Z" fill="white" stroke="#2727E6"/>
<path d="M249.089 124.046C247.115 120.529 248.393 115.714 251.954 113.868C255.488 112.036 260.049 113.787 262.039 117.332C264.003 120.831 262.702 125.174 259.123 127.029C255.543 128.885 251.052 127.544 249.089 124.046Z" fill="white" stroke="#2727E6"/>
<path d="M229.032 119.912C229.032 122.253 230.328 126.826 235.511 126.394M236.591 115.591C237.671 115.951 239.938 117.32 240.37 119.912M256.028 115.591C257.827 116.131 261.103 118.292 259.807 122.613" stroke="#2727E6" stroke-linecap="round"/>
<ellipse rx="19.1667" ry="19.1655" transform="matrix(-1 0 0 1 300.167 21.1655)" fill="#2727E6"/>
<path d="M293.162 17.1945L298.027 31.1087L296.06 31.7971L291.8 19.6123L288.66 20.711L288.056 18.9817L293.162 17.1945Z" fill="white"/>
<path d="M306.808 28.2141C305.708 28.5989 304.631 28.6636 303.575 28.4084C302.528 28.1353 301.572 27.5478 300.707 26.646C299.841 25.7441 299.151 24.5577 298.637 23.0868C298.122 21.6159 297.923 20.258 298.037 19.0131C298.152 17.7681 298.536 16.7191 299.189 15.8658C299.851 14.9946 300.731 14.3667 301.831 13.9819C302.917 13.6017 303.984 13.5482 305.031 13.8213C306.086 14.0766 307.047 14.6551 307.912 15.5569C308.778 16.4588 309.467 17.6452 309.982 19.1161C310.496 20.587 310.696 21.9449 310.581 23.1898C310.466 24.4348 310.078 25.4928 309.417 26.3639C308.763 27.2172 307.894 27.8339 306.808 28.2141ZM306.189 26.445C307.302 26.0556 308.029 25.2878 308.372 24.1416C308.728 22.9908 308.602 21.5474 307.995 19.8115C307.388 18.0755 306.587 16.8686 305.591 16.1907C304.609 15.5081 303.562 15.3615 302.449 15.751C301.324 16.145 300.583 16.9174 300.227 18.0682C299.884 19.2144 300.017 20.6555 300.624 22.3914C301.231 24.1274 302.025 25.3366 303.007 26.0192C304.003 26.6971 305.063 26.839 306.189 26.445Z" fill="white"/>
<path opacity="0.6" d="M183.237 19.1336C176.103 8.56642 147.419 16.3202 125.203 32.1515C102.988 47.9829 90.7618 69.3831 97.8955 79.9503C102.18 94.2472 133.199 98.4561 151.037 70.4186C168.875 42.3812 190.371 29.7008 183.237 19.1336Z" fill="#FCCBBB"/>
<circle cx="413" cy="167" r="2.5" stroke="#2727E6"/>
<circle cx="422" cy="163" r="2.5" stroke="#2727E6"/>
<circle cx="430" cy="158" r="2.5" stroke="#2727E6"/>
</svg>
